<svg aria-hidden="true" focusable="false" role="img" xmlns="http://www.w3.org/2000/svg" width="512" height="512">
	<defs>
		<linearGradient id="backgroundGradient" x1="0" x2="0" y1="0" y2="1">
			<stop offset="0%" stop-color="#022e70"/>
			<stop offset="100%" stop-color="#011a44"/>
		</linearGradient>
	</defs>

	<rect x="0" y="0" width="100%" height="100%" fill="url(#backgroundGradient)"/>

	<g transform="translate(83 20)">
		<g transform="scale(0.9 0.9)">
			<path fill="#1a78d8" d="M172.268 501.67C26.97 291.031 0 269.413 0 192 0 85.961 85.961 0 192 0s192 85.961 192 192c0 77.413-26.97 99.031-172.268 309.67-9.535 13.774-29.93 13.773-39.464 0z"/>
			<g transform="translate(192 192)">
				<g transform="translate(-66 -86)">
					<path fill="#FFFFFF" d="
						M0,0
						L36,0
						L36,108
						L92,0
						L132,0
						L132,172
						L96,172
						L96,64
						L40,172
						L0,172
						Z"/>
				</g>
			</g>
		</g>
	</g>
</svg>
