<?xml version="1.0" encoding="UTF-8" standalone="no"?>
<!--
  Safari pinned-tab glyph: must be a single-colour SVG, so we render
  just the stylised "N" (without the disc) using the same path data as
  the official Namecoin coin logo.
-->
<svg xmlns="http://www.w3.org/2000/svg" viewBox="0 0 384 384" width="16" height="16">
	<g transform="translate(192 192) scale(3.4) translate(-61.53612 -61.53784)">
		<g transform="translate(62.781692,-470.2193)">
			<g transform="matrix(0.93057971,0.01642274,-0.01642274,0.93057971,-368.91713,245.87331)">
				<g transform="matrix(1.0005201,-9.1763025e-6,0.02946347,0.99948005,-9.0517954,0.15742177)">
					<path d="m 431.436,274.104 0.01,-0.011 h -2.715 c -0.516,-0.01 -1.059,0.045 -1.621,0.176 -3.102,0.718 -5.729,3.396 -6.352,6.281 l -6.361,23.479 -21.89,-30.065 -0.014,0.01 0.013,-0.031 -3.623,-0.025 -0.003,0.003 c -0.519,-0.009 -1.063,0.043 -1.622,0.173 -3.102,0.719 -5.725,3.396 -6.353,6.278 l -12.427,45.998 h 0.899 l -0.001,0.003 h 2.716 c 0.515,0.009 1.06,-0.044 1.62,-0.176 3.103,-0.719 5.729,-3.396 6.352,-6.281 l 6.406,-23.65 21.895,30.066 h 0.006 l -0.006,0.015 3.621,0.027 0.004,-0.003 c 0.518,0.009 1.061,-0.044 1.621,-0.176 3.102,-0.719 5.727,-3.396 6.352,-6.281 l 12.35,-45.804 -0.877,-0.006 z m -20.907,44.25 -21.897,-30.079 1.71,-6.33 21.9,30.076 -1.713,6.333 z"/>
				</g>
			</g>
		</g>
	</g>
</svg>
